<?xml version="1.0" encoding="UTF-8" standalone="no"?>
<!DOCTYPE svg PUBLIC "-//W3C//DTD SVG 1.1//EN"
 "http://www.w3.org/Graphics/SVG/1.1/DTD/svg11.dtd">
<!-- Generated by graphviz version 2.40.1 (20161225.0304)
 -->
<!-- Title: G Pages: 1 -->
<svg width="795pt" height="404pt"
 viewBox="0.00 0.00 795.24 404.00" xmlns="http://www.w3.org/2000/svg" xmlns:xlink="http://www.w3.org/1999/xlink">
<g id="graph0" class="graph" transform="scale(1 1) rotate(0) translate(4 400)">
<title>G</title>
<polygon fill="#ffffff" stroke="transparent" points="-4,4 -4,-400 791.237,-400 791.237,4 -4,4"/>
<!-- S -->
<g id="node1" class="node">
<title>S</title>
<ellipse fill="none" stroke="#c0c0c0" cx="47.942" cy="-162" rx="47.8841" ry="18"/>
<text text-anchor="middle" x="47.942" y="-157.8" font-family="Times,serif" font-size="14.00" fill="#000000">Sensitivity</text>
</g>
<!-- V -->
<g id="node2" class="node">
<title>V</title>
<ellipse fill="none" stroke="#c0c0c0" cx="180.942" cy="-90" rx="39.6558" ry="18"/>
<text text-anchor="middle" x="180.942" y="-85.8" font-family="Times,serif" font-size="14.00" fill="#000000">Severity</text>
</g>
<!-- S&#45;&gt;V -->
<g id="edge1" class="edge">
<title>S&#45;&gt;V</title>
<path fill="none" stroke="#000000" d="M75.4997,-147.0816C96.0051,-135.9809 124.1379,-120.7511 146.1871,-108.8147"/>
<polygon fill="#000000" stroke="#000000" points="148.0966,-111.761 155.2244,-103.9223 144.764,-105.6051 148.0966,-111.761"/>
</g>
<!-- R -->
<g id="node4" class="node">
<title>R</title>
<ellipse fill="none" stroke="#c0c0c0" cx="243.942" cy="-18" rx="55.1079" ry="18"/>
<text text-anchor="middle" x="243.942" y="-13.8" font-family="Times,serif" font-size="14.00" fill="#000000">Overall Risk</text>
</g>
<!-- V&#45;&gt;R -->
<g id="edge3" class="edge">
<title>V&#45;&gt;R</title>
<path fill="none" stroke="#000000" d="M195.8721,-72.937C203.6816,-64.0119 213.3906,-52.9159 222.0343,-43.0373"/>
<polygon fill="#000000" stroke="#000000" points="224.7304,-45.2712 228.6814,-35.4407 219.4623,-40.6617 224.7304,-45.2712"/>
</g>
<!-- F -->
<g id="node3" class="node">
<title>F</title>
<ellipse fill="none" stroke="#c0c0c0" cx="180.942" cy="-162" rx="67.1523" ry="18"/>
<text text-anchor="middle" x="180.942" y="-157.8" font-family="Times,serif" font-size="14.00" fill="#000000">Fraud Detection</text>
</g>
<!-- F&#45;&gt;V -->
<g id="edge2" class="edge">
<title>F&#45;&gt;V</title>
<path fill="none" stroke="#000000" d="M180.942,-143.8314C180.942,-136.131 180.942,-126.9743 180.942,-118.4166"/>
<polygon fill="#000000" stroke="#000000" points="184.4421,-118.4132 180.942,-108.4133 177.4421,-118.4133 184.4421,-118.4132"/>
</g>
<!-- A -->
<g id="node5" class="node">
<title>A</title>
<ellipse fill="none" stroke="#c0c0c0" cx="275.942" cy="-306" rx="27" ry="18"/>
<text text-anchor="middle" x="275.942" y="-301.8" font-family="Times,serif" font-size="14.00" fill="#000000">Ease</text>
</g>
<!-- Q -->
<g id="node6" class="node">
<title>Q</title>
<ellipse fill="none" stroke="#c0c0c0" cx="306.942" cy="-162" rx="41.1093" ry="18"/>
<text text-anchor="middle" x="306.942" y="-157.8" font-family="Times,serif" font-size="14.00" fill="#000000">Quantity</text>
</g>
<!-- A&#45;&gt;Q -->
<g id="edge4" class="edge">
<title>A&#45;&gt;Q</title>
<path fill="none" stroke="#000000" d="M279.8055,-288.0535C285.0962,-263.4774 294.6495,-219.1008 300.8932,-190.0974"/>
<polygon fill="#000000" stroke="#000000" points="304.3468,-190.6854 303.0298,-180.1727 297.5036,-189.2121 304.3468,-190.6854"/>
</g>
<!-- X -->
<g id="node10" class="node">
<title>X</title>
<ellipse fill="none" stroke="#c0c0c0" cx="387.942" cy="-234" rx="50.7483" ry="18"/>
<text text-anchor="middle" x="387.942" y="-229.8" font-family="Times,serif" font-size="14.00" fill="#000000">Exploitable</text>
</g>
<!-- A&#45;&gt;X -->
<g id="edge9" class="edge">
<title>A&#45;&gt;X</title>
<path fill="none" stroke="#000000" d="M295.4509,-293.4586C311.7558,-282.9769 335.3707,-267.7958 354.6574,-255.3973"/>
<polygon fill="#000000" stroke="#000000" points="356.6533,-258.2751 363.1724,-249.9233 352.8679,-252.3868 356.6533,-258.2751"/>
</g>
<!-- I -->
<g id="node7" class="node">
<title>I</title>
<ellipse fill="none" stroke="#c0c0c0" cx="306.942" cy="-90" rx="68.1215" ry="18"/>
<text text-anchor="middle" x="306.942" y="-85.8" font-family="Times,serif" font-size="14.00" fill="#000000">Potential Impact</text>
</g>
<!-- Q&#45;&gt;I -->
<g id="edge5" class="edge">
<title>Q&#45;&gt;I</title>
<path fill="none" stroke="#000000" d="M306.942,-143.8314C306.942,-136.131 306.942,-126.9743 306.942,-118.4166"/>
<polygon fill="#000000" stroke="#000000" points="310.4421,-118.4132 306.942,-108.4133 303.4421,-118.4133 310.4421,-118.4132"/>
</g>
<!-- I&#45;&gt;R -->
<g id="edge6" class="edge">
<title>I&#45;&gt;R</title>
<path fill="none" stroke="#000000" d="M291.369,-72.2022C283.6829,-63.4182 274.28,-52.672 265.8795,-43.0714"/>
<polygon fill="#000000" stroke="#000000" points="268.3376,-40.5656 259.1185,-35.3446 263.0696,-45.1752 268.3376,-40.5656"/>
</g>
<!-- E -->
<g id="node8" class="node">
<title>E</title>
<ellipse fill="none" stroke="#c0c0c0" cx="393.942" cy="-378" rx="51.2492" ry="18"/>
<text text-anchor="middle" x="393.942" y="-373.8" font-family="Times,serif" font-size="14.00" fill="#000000">Log Access</text>
</g>
<!-- N -->
<g id="node9" class="node">
<title>N</title>
<ellipse fill="none" stroke="#c0c0c0" cx="393.942" cy="-306" rx="72.9738" ry="18"/>
<text text-anchor="middle" x="393.942" y="-301.8" font-family="Times,serif" font-size="14.00" fill="#000000">Notice passwords</text>
</g>
<!-- E&#45;&gt;N -->
<g id="edge7" class="edge">
<title>E&#45;&gt;N</title>
<path fill="none" stroke="#000000" d="M393.942,-359.8314C393.942,-352.131 393.942,-342.9743 393.942,-334.4166"/>
<polygon fill="#000000" stroke="#000000" points="397.4421,-334.4132 393.942,-324.4133 390.4421,-334.4133 397.4421,-334.4132"/>
</g>
<!-- N&#45;&gt;X -->
<g id="edge8" class="edge">
<title>N&#45;&gt;X</title>
<path fill="none" stroke="#000000" d="M392.4279,-287.8314C391.7862,-280.131 391.0232,-270.9743 390.3101,-262.4166"/>
<polygon fill="#000000" stroke="#000000" points="393.7949,-262.088 389.4764,-252.4133 386.8191,-262.6694 393.7949,-262.088"/>
</g>
<!-- D -->
<g id="node13" class="node">
<title>D</title>
<ellipse fill="none" stroke="#c0c0c0" cx="418.942" cy="-162" rx="53.1785" ry="18"/>
<text text-anchor="middle" x="418.942" y="-157.8" font-family="Times,serif" font-size="14.00" fill="#000000">Is Exploited</text>
</g>
<!-- X&#45;&gt;D -->
<g id="edge12" class="edge">
<title>X&#45;&gt;D</title>
<path fill="none" stroke="#000000" d="M395.6049,-216.2022C399.1074,-208.0675 403.3343,-198.2501 407.2231,-189.2181"/>
<polygon fill="#000000" stroke="#000000" points="410.5198,-190.4115 411.2598,-179.8425 404.0905,-187.6433 410.5198,-190.4115"/>
</g>
<!-- P -->
<g id="node11" class="node">
<title>P</title>
<ellipse fill="none" stroke="#c0c0c0" cx="515.942" cy="-306" rx="31.9393" ry="18"/>
<text text-anchor="middle" x="515.942" y="-301.8" font-family="Times,serif" font-size="14.00" fill="#000000">Speed</text>
</g>
<!-- P&#45;&gt;X -->
<g id="edge10" class="edge">
<title>P&#45;&gt;X</title>
<path fill="none" stroke="#000000" d="M493.3528,-293.2936C474.1768,-282.507 446.3085,-266.8311 424.0422,-254.3064"/>
<polygon fill="#000000" stroke="#000000" points="425.6269,-251.1821 415.1952,-249.3299 422.195,-257.2831 425.6269,-251.1821"/>
</g>
<!-- W -->
<g id="node12" class="node">
<title>W</title>
<ellipse fill="none" stroke="#c0c0c0" cx="493.942" cy="-234" rx="37.7179" ry="18"/>
<text text-anchor="middle" x="493.942" y="-229.8" font-family="Times,serif" font-size="14.00" fill="#000000">Reward</text>
</g>
<!-- W&#45;&gt;D -->
<g id="edge11" class="edge">
<title>W&#45;&gt;D</title>
<path fill="none" stroke="#000000" d="M476.9233,-217.6621C467.2551,-208.3806 454.9668,-196.5838 444.1935,-186.2415"/>
<polygon fill="#000000" stroke="#000000" points="446.3136,-183.425 436.6759,-179.0245 441.4659,-188.4747 446.3136,-183.425"/>
</g>
<!-- D&#45;&gt;I -->
<g id="edge18" class="edge">
<title>D&#45;&gt;I</title>
<path fill="none" stroke="#000000" d="M394.0856,-146.0209C378.6096,-136.072 358.4806,-123.132 341.4679,-112.1952"/>
<polygon fill="#000000" stroke="#000000" points="343.201,-109.1485 332.8965,-106.6851 339.4157,-115.0368 343.201,-109.1485"/>
</g>
<!-- B -->
<g id="node14" class="node">
<title>B</title>
<ellipse fill="none" stroke="#c0c0c0" cx="213.942" cy="-234" rx="30.9793" ry="18"/>
<text text-anchor="middle" x="213.942" y="-229.8" font-family="Times,serif" font-size="14.00" fill="#000000">Noise</text>
</g>
<!-- B&#45;&gt;F -->
<g id="edge13" class="edge">
<title>B&#45;&gt;F</title>
<path fill="none" stroke="#000000" d="M205.9536,-216.5708C202.1878,-208.3544 197.6074,-198.3608 193.4005,-189.1821"/>
<polygon fill="#000000" stroke="#000000" points="196.5498,-187.6529 189.2014,-180.0206 190.1863,-190.5696 196.5498,-187.6529"/>
</g>
<!-- B&#45;&gt;D -->
<g id="edge14" class="edge">
<title>B&#45;&gt;D</title>
<path fill="none" stroke="#000000" d="M240.3225,-224.7347C273.6602,-213.0258 331.6094,-192.6729 372.4456,-178.3305"/>
<polygon fill="#000000" stroke="#000000" points="373.6403,-181.6205 381.9154,-175.0044 371.3206,-175.016 373.6403,-181.6205"/>
</g>
<!-- K -->
<g id="node15" class="node">
<title>K</title>
<ellipse fill="none" stroke="#c0c0c0" cx="603.942" cy="-306" rx="27" ry="18"/>
<text text-anchor="middle" x="603.942" y="-301.8" font-family="Times,serif" font-size="14.00" fill="#000000">Job</text>
</g>
<!-- C -->
<g id="node16" class="node">
<title>C</title>
<ellipse fill="none" stroke="#c0c0c0" cx="609.942" cy="-234" rx="60.896" ry="18"/>
<text text-anchor="middle" x="609.942" y="-229.8" font-family="Times,serif" font-size="14.00" fill="#000000">Consequences</text>
</g>
<!-- K&#45;&gt;C -->
<g id="edge15" class="edge">
<title>K&#45;&gt;C</title>
<path fill="none" stroke="#000000" d="M605.4561,-287.8314C606.0978,-280.131 606.8608,-270.9743 607.5739,-262.4166"/>
<polygon fill="#000000" stroke="#000000" points="611.0649,-262.6694 608.4076,-252.4133 604.0891,-262.088 611.0649,-262.6694"/>
</g>
<!-- C&#45;&gt;D -->
<g id="edge17" class="edge">
<title>C&#45;&gt;D</title>
<path fill="none" stroke="#000000" d="M572.2065,-219.7751C541.1363,-208.0628 496.9996,-191.4249 464.0638,-179.0093"/>
<polygon fill="#000000" stroke="#000000" points="465.2529,-175.7171 454.6611,-175.4648 462.7837,-182.2672 465.2529,-175.7171"/>
</g>
<!-- Y -->
<g id="node17" class="node">
<title>Y</title>
<ellipse fill="none" stroke="#c0c0c0" cx="717.942" cy="-306" rx="69.0906" ry="18"/>
<text text-anchor="middle" x="717.942" y="-301.8" font-family="Times,serif" font-size="14.00" fill="#000000">Criminal Record</text>
</g>
<!-- Y&#45;&gt;C -->
<g id="edge16" class="edge">
<title>Y&#45;&gt;C</title>
<path fill="none" stroke="#000000" d="M692.6208,-289.1192C677.8914,-279.2996 659.1516,-266.8064 643.2385,-256.1976"/>
<polygon fill="#000000" stroke="#000000" points="644.9941,-253.1616 634.7321,-250.5267 641.1111,-258.986 644.9941,-253.1616"/>
</g>
</g>
</svg>
