<?xml version="1.0" encoding="UTF-8" standalone="no"?>
<!DOCTYPE svg PUBLIC "-//W3C//DTD SVG 1.1//EN"
 "http://www.w3.org/Graphics/SVG/1.1/DTD/svg11.dtd">
<!-- Generated by graphviz version 2.40.1 (20161225.0304)
 -->
<!-- Title: G Pages: 1 -->
<svg width="813pt" height="404pt"
 viewBox="0.00 0.00 812.94 404.00" xmlns="http://www.w3.org/2000/svg" xmlns:xlink="http://www.w3.org/1999/xlink">
<g id="graph0" class="graph" transform="scale(1 1) rotate(0) translate(4 400)">
<title>G</title>
<polygon fill="#ffffff" stroke="transparent" points="-4,4 -4,-400 808.942,-400 808.942,4 -4,4"/>
<!-- S -->
<g id="node1" class="node">
<title>S</title>
<ellipse fill="none" stroke="#c0c0c0" cx="47.942" cy="-162" rx="47.8841" ry="18"/>
<text text-anchor="middle" x="47.942" y="-157.8" font-family="Times,serif" font-size="14.00" fill="#000000">Sensitivity</text>
</g>
<!-- V -->
<g id="node2" class="node">
<title>V</title>
<ellipse fill="none" stroke="#c0c0c0" cx="180.942" cy="-90" rx="39.6558" ry="18"/>
<text text-anchor="middle" x="180.942" y="-85.8" font-family="Times,serif" font-size="14.00" fill="#000000">Severity</text>
</g>
<!-- S&#45;&gt;V -->
<g id="edge1" class="edge">
<title>S&#45;&gt;V</title>
<path fill="none" stroke="#000000" d="M75.4997,-147.0816C96.0051,-135.9809 124.1379,-120.7511 146.1871,-108.8147"/>
<polygon fill="#000000" stroke="#000000" points="148.0966,-111.761 155.2244,-103.9223 144.764,-105.6051 148.0966,-111.761"/>
</g>
<!-- R -->
<g id="node4" class="node">
<title>R</title>
<ellipse fill="none" stroke="#c0c0c0" cx="243.942" cy="-18" rx="55.1079" ry="18"/>
<text text-anchor="middle" x="243.942" y="-13.8" font-family="Times,serif" font-size="14.00" fill="#000000">Overall Risk</text>
</g>
<!-- V&#45;&gt;R -->
<g id="edge3" class="edge">
<title>V&#45;&gt;R</title>
<path fill="none" stroke="#000000" d="M195.8721,-72.937C203.6816,-64.0119 213.3906,-52.9159 222.0343,-43.0373"/>
<polygon fill="#000000" stroke="#000000" points="224.7304,-45.2712 228.6814,-35.4407 219.4623,-40.6617 224.7304,-45.2712"/>
</g>
<!-- F -->
<g id="node3" class="node">
<title>F</title>
<ellipse fill="none" stroke="#c0c0c0" cx="180.942" cy="-162" rx="67.1523" ry="18"/>
<text text-anchor="middle" x="180.942" y="-157.8" font-family="Times,serif" font-size="14.00" fill="#000000">Fraud Detection</text>
</g>
<!-- F&#45;&gt;V -->
<g id="edge2" class="edge">
<title>F&#45;&gt;V</title>
<path fill="none" stroke="#000000" d="M180.942,-143.8314C180.942,-136.131 180.942,-126.9743 180.942,-118.4166"/>
<polygon fill="#000000" stroke="#000000" points="184.4421,-118.4132 180.942,-108.4133 177.4421,-118.4133 184.4421,-118.4132"/>
</g>
<!-- Q -->
<g id="node5" class="node">
<title>Q</title>
<ellipse fill="none" stroke="#c0c0c0" cx="306.942" cy="-162" rx="41.1093" ry="18"/>
<text text-anchor="middle" x="306.942" y="-157.8" font-family="Times,serif" font-size="14.00" fill="#000000">Quantity</text>
</g>
<!-- I -->
<g id="node6" class="node">
<title>I</title>
<ellipse fill="none" stroke="#c0c0c0" cx="306.942" cy="-90" rx="68.1215" ry="18"/>
<text text-anchor="middle" x="306.942" y="-85.8" font-family="Times,serif" font-size="14.00" fill="#000000">Potential Impact</text>
</g>
<!-- Q&#45;&gt;I -->
<g id="edge4" class="edge">
<title>Q&#45;&gt;I</title>
<path fill="none" stroke="#000000" d="M306.942,-143.8314C306.942,-136.131 306.942,-126.9743 306.942,-118.4166"/>
<polygon fill="#000000" stroke="#000000" points="310.4421,-118.4132 306.942,-108.4133 303.4421,-118.4133 310.4421,-118.4132"/>
</g>
<!-- I&#45;&gt;R -->
<g id="edge5" class="edge">
<title>I&#45;&gt;R</title>
<path fill="none" stroke="#000000" d="M291.369,-72.2022C283.6829,-63.4182 274.28,-52.672 265.8795,-43.0714"/>
<polygon fill="#000000" stroke="#000000" points="268.3376,-40.5656 259.1185,-35.3446 263.0696,-45.1752 268.3376,-40.5656"/>
</g>
<!-- E -->
<g id="node7" class="node">
<title>E</title>
<ellipse fill="none" stroke="#c0c0c0" cx="659.942" cy="-378" rx="51.2492" ry="18"/>
<text text-anchor="middle" x="659.942" y="-373.8" font-family="Times,serif" font-size="14.00" fill="#000000">Log Access</text>
</g>
<!-- N -->
<g id="node8" class="node">
<title>N</title>
<ellipse fill="none" stroke="#c0c0c0" cx="659.942" cy="-306" rx="72.9738" ry="18"/>
<text text-anchor="middle" x="659.942" y="-301.8" font-family="Times,serif" font-size="14.00" fill="#000000">Notice passwords</text>
</g>
<!-- E&#45;&gt;N -->
<g id="edge6" class="edge">
<title>E&#45;&gt;N</title>
<path fill="none" stroke="#000000" d="M659.942,-359.8314C659.942,-352.131 659.942,-342.9743 659.942,-334.4166"/>
<polygon fill="#000000" stroke="#000000" points="663.4421,-334.4132 659.942,-324.4133 656.4421,-334.4133 663.4421,-334.4132"/>
</g>
<!-- X -->
<g id="node9" class="node">
<title>X</title>
<ellipse fill="none" stroke="#c0c0c0" cx="604.942" cy="-234" rx="50.7483" ry="18"/>
<text text-anchor="middle" x="604.942" y="-229.8" font-family="Times,serif" font-size="14.00" fill="#000000">Exploitable</text>
</g>
<!-- N&#45;&gt;X -->
<g id="edge7" class="edge">
<title>N&#45;&gt;X</title>
<path fill="none" stroke="#000000" d="M646.3465,-288.2022C639.7527,-279.5704 631.7117,-269.0439 624.4759,-259.5717"/>
<polygon fill="#000000" stroke="#000000" points="627.2329,-257.4151 618.3811,-251.593 621.6702,-261.6644 627.2329,-257.4151"/>
</g>
<!-- D -->
<g id="node13" class="node">
<title>D</title>
<ellipse fill="none" stroke="#c0c0c0" cx="418.942" cy="-162" rx="53.1785" ry="18"/>
<text text-anchor="middle" x="418.942" y="-157.8" font-family="Times,serif" font-size="14.00" fill="#000000">Is Exploited</text>
</g>
<!-- X&#45;&gt;D -->
<g id="edge11" class="edge">
<title>X&#45;&gt;D</title>
<path fill="none" stroke="#000000" d="M570.3927,-220.6261C540.177,-208.9297 496.1178,-191.8745 463.3025,-179.1718"/>
<polygon fill="#000000" stroke="#000000" points="464.5266,-175.8926 453.9374,-175.5466 461.9996,-182.4206 464.5266,-175.8926"/>
</g>
<!-- A -->
<g id="node10" class="node">
<title>A</title>
<ellipse fill="none" stroke="#c0c0c0" cx="777.942" cy="-306" rx="27" ry="18"/>
<text text-anchor="middle" x="777.942" y="-301.8" font-family="Times,serif" font-size="14.00" fill="#000000">Ease</text>
</g>
<!-- A&#45;&gt;X -->
<g id="edge8" class="edge">
<title>A&#45;&gt;X</title>
<path fill="none" stroke="#000000" d="M756.3878,-294.8365C751.6648,-292.4991 746.6644,-290.1064 741.942,-288 711.6858,-274.5046 676.9567,-260.8352 650.0357,-250.6259"/>
<polygon fill="#000000" stroke="#000000" points="651.0852,-247.2812 640.4934,-247.0279 648.6155,-253.831 651.0852,-247.2812"/>
</g>
<!-- P -->
<g id="node11" class="node">
<title>P</title>
<ellipse fill="none" stroke="#c0c0c0" cx="537.942" cy="-306" rx="31.9393" ry="18"/>
<text text-anchor="middle" x="537.942" y="-301.8" font-family="Times,serif" font-size="14.00" fill="#000000">Speed</text>
</g>
<!-- P&#45;&gt;X -->
<g id="edge9" class="edge">
<title>P&#45;&gt;X</title>
<path fill="none" stroke="#000000" d="M552.8115,-290.0209C561.352,-280.843 572.2613,-269.1196 581.8907,-258.7716"/>
<polygon fill="#000000" stroke="#000000" points="584.6943,-260.8965 588.9444,-251.1915 579.5698,-256.1279 584.6943,-260.8965"/>
</g>
<!-- W -->
<g id="node12" class="node">
<title>W</title>
<ellipse fill="none" stroke="#c0c0c0" cx="302.942" cy="-234" rx="37.7179" ry="18"/>
<text text-anchor="middle" x="302.942" y="-229.8" font-family="Times,serif" font-size="14.00" fill="#000000">Reward</text>
</g>
<!-- W&#45;&gt;D -->
<g id="edge10" class="edge">
<title>W&#45;&gt;D</title>
<path fill="none" stroke="#000000" d="M326.1375,-219.6028C342.9183,-209.1871 365.8671,-194.9431 384.7452,-183.2256"/>
<polygon fill="#000000" stroke="#000000" points="386.7169,-186.1212 393.3675,-177.8738 383.0253,-180.1737 386.7169,-186.1212"/>
</g>
<!-- D&#45;&gt;I -->
<g id="edge17" class="edge">
<title>D&#45;&gt;I</title>
<path fill="none" stroke="#000000" d="M394.0856,-146.0209C378.6096,-136.072 358.4806,-123.132 341.4679,-112.1952"/>
<polygon fill="#000000" stroke="#000000" points="343.201,-109.1485 332.8965,-106.6851 339.4157,-115.0368 343.201,-109.1485"/>
</g>
<!-- B -->
<g id="node14" class="node">
<title>B</title>
<ellipse fill="none" stroke="#c0c0c0" cx="198.942" cy="-234" rx="30.9793" ry="18"/>
<text text-anchor="middle" x="198.942" y="-229.8" font-family="Times,serif" font-size="14.00" fill="#000000">Noise</text>
</g>
<!-- B&#45;&gt;F -->
<g id="edge12" class="edge">
<title>B&#45;&gt;F</title>
<path fill="none" stroke="#000000" d="M194.3998,-215.8314C192.4536,-208.0463 190.1352,-198.7729 187.9757,-190.1347"/>
<polygon fill="#000000" stroke="#000000" points="191.3662,-189.2658 185.5453,-180.4133 184.5752,-190.9636 191.3662,-189.2658"/>
</g>
<!-- B&#45;&gt;D -->
<g id="edge13" class="edge">
<title>B&#45;&gt;D</title>
<path fill="none" stroke="#000000" d="M225.9183,-225.1714C261.9732,-213.3716 326.4788,-192.2607 370.9315,-177.7125"/>
<polygon fill="#000000" stroke="#000000" points="372.237,-180.968 380.6524,-174.5312 370.0597,-174.3152 372.237,-180.968"/>
</g>
<!-- K -->
<g id="node15" class="node">
<title>K</title>
<ellipse fill="none" stroke="#c0c0c0" cx="304.942" cy="-306" rx="27" ry="18"/>
<text text-anchor="middle" x="304.942" y="-301.8" font-family="Times,serif" font-size="14.00" fill="#000000">Job</text>
</g>
<!-- C -->
<g id="node16" class="node">
<title>C</title>
<ellipse fill="none" stroke="#c0c0c0" cx="418.942" cy="-234" rx="60.896" ry="18"/>
<text text-anchor="middle" x="418.942" y="-229.8" font-family="Times,serif" font-size="14.00" fill="#000000">Consequences</text>
</g>
<!-- K&#45;&gt;C -->
<g id="edge14" class="edge">
<title>K&#45;&gt;C</title>
<path fill="none" stroke="#000000" d="M324.7993,-293.4586C341.174,-283.1166 364.7923,-268.1998 384.2754,-255.8947"/>
<polygon fill="#000000" stroke="#000000" points="386.3094,-258.7497 392.8953,-250.4506 382.5714,-252.8313 386.3094,-258.7497"/>
</g>
<!-- C&#45;&gt;D -->
<g id="edge16" class="edge">
<title>C&#45;&gt;D</title>
<path fill="none" stroke="#000000" d="M418.942,-215.8314C418.942,-208.131 418.942,-198.9743 418.942,-190.4166"/>
<polygon fill="#000000" stroke="#000000" points="422.4421,-190.4132 418.942,-180.4133 415.4421,-190.4133 422.4421,-190.4132"/>
</g>
<!-- Y -->
<g id="node17" class="node">
<title>Y</title>
<ellipse fill="none" stroke="#c0c0c0" cx="418.942" cy="-306" rx="69.0906" ry="18"/>
<text text-anchor="middle" x="418.942" y="-301.8" font-family="Times,serif" font-size="14.00" fill="#000000">Criminal Record</text>
</g>
<!-- Y&#45;&gt;C -->
<g id="edge15" class="edge">
<title>Y&#45;&gt;C</title>
<path fill="none" stroke="#000000" d="M418.942,-287.8314C418.942,-280.131 418.942,-270.9743 418.942,-262.4166"/>
<polygon fill="#000000" stroke="#000000" points="422.4421,-262.4132 418.942,-252.4133 415.4421,-262.4133 422.4421,-262.4132"/>
</g>
</g>
</svg>
